<?xml version="1.0" encoding="utf-8"?>
<!-- Generator: Adobe Illustrator 25.0.0, SVG Export Plug-In . SVG Version: 6.00 Build 0)  -->
<svg version="1.1" id="Layer_1" xmlns="http://www.w3.org/2000/svg" xmlns:xlink="http://www.w3.org/1999/xlink" x="0px" y="0px"
	 viewBox="0 0 1212.8 360" style="enable-background:new 0 0 1212.8 360;" xml:space="preserve">
<style type="text/css">
	.st0{fill:#E8E8E6;}
	.st1{fill:#111D2A;}
	.st2{fill:#253246;}
	.st3{fill:#D6CEC1;}
	.st4{fill:#A5875E;}
	.st5{fill:url(#SVGID_1_);}
	.st6{fill:url(#SVGID_2_);}
</style>
<linearGradient id="SVGID_1_" gradientUnits="userSpaceOnUse" x1="0" y1="180.2477" x2="1212.7915" y2="180.2477">
	<stop  offset="0" style="stop-color:#997136"/>
	<stop  offset="1" style="stop-color:#DAA26D"/>
</linearGradient>
<path class="st5" d="M94.5,11.3c3.2-8.9,4.3-10.6,6-10.6c1.6,0,2.7,1.4,6,9.8c4.1,10.3,46.6,122.1,63.1,163.3
	c9.8,24.1,17.6,28.4,23.3,30.1c4.1,1.3,8.1,1.6,10.8,1.6c1.6,0,2.7,0.3,2.7,1.6c0,1.6-2.4,2.2-5.4,2.2c-4.1,0-23.8,0-42.5-0.5
	c-5.1-0.3-8.1-0.3-8.1-1.9c0-1.1,0.8-1.6,1.9-1.9c1.6-0.5,3.2-3,1.6-7.3L128.6,131c-0.5-1.1-1.1-1.6-2.4-1.6H68
	c-1.4,0-2.2,0.8-2.7,2.2L49,179.5c-2.4,6.8-3.8,13.3-3.8,18.2c0,5.4,5.7,7.8,10.3,7.8h2.7c1.9,0,2.7,0.5,2.7,1.6
	c0,1.6-1.6,2.2-4.1,2.2c-6.5,0-18.1-0.8-21.1-0.8c-3,0-17.9,0.8-30.6,0.8c-3.5,0-5.1-0.5-5.1-2.2c0-1.1,1.1-1.6,2.4-1.6
	c1.9,0,5.7-0.3,7.9-0.5c12.5-1.6,17.9-11.9,22.7-25.5L94.5,11.3z M122.7,119.6c1.4,0,1.4-0.8,1.1-1.9L98,44.6
	c-1.4-4.1-2.7-4.1-4.1,0l-23.8,73.1c-0.5,1.4,0,1.9,0.8,1.9H122.7z M238.6,205.7c-3.8-1.9-4.1-3-4.1-10.3c0-13.5,1.1-24.4,1.4-28.7
	c0.3-3,0.8-4.3,2.2-4.3c1.6,0,1.9,0.8,1.9,3c0,2.4,0,6.2,0.8,10c4.1,20,21.9,27.6,40.1,27.6c26,0,38.7-18.7,38.7-36
	c0-18.7-7.8-29.5-31.1-48.8l-12.2-10C247.5,84.7,241,67.9,241,49.5c0-29,21.7-48.8,56.1-48.8c10.6,0,18.4,1.1,25.2,2.7
	c5.1,1.1,7.3,1.4,9.5,1.4c2.2,0,2.7,0.5,2.7,1.9c0,1.4-1.1,10.3-1.1,28.7c0,4.3-0.5,6.2-1.9,6.2c-1.6,0-1.9-1.4-2.2-3.5
	c-0.3-3.3-1.9-10.6-3.5-13.5c-1.6-3-8.9-14.4-33.9-14.4c-18.7,0-33.3,11.6-33.3,31.4c0,15.4,7.6,24.6,33,45.5l7.6,6
	c32,25.2,39.5,42,39.5,63.7c0,11.1-4.3,31.7-23,45c-11.6,8.1-26.3,11.4-40.9,11.4C262.1,213,249.7,211.1,238.6,205.7z M420.3,183.8
	c-26.3-23.6-32.8-54.4-32.8-80.2c0-18.1,6.2-49.8,30.3-73.9c16.2-16.3,40.9-29,82.6-29c10.8,0,26,0.8,39.3,3.3
	c10.3,1.9,19,3.5,27.6,4.1c3,0.3,3.5,1.4,3.5,3c0,2.2-0.8,5.4-1.4,15.2c-0.5,8.9-0.5,23.8-0.8,27.9c-0.3,4.1-0.8,5.7-2.4,5.7
	c-1.9,0-2.2-1.9-2.2-5.7c0-10.6-4.3-21.7-11.4-27.6c-9.5-8.1-30.3-15.4-54.2-15.4c-36,0-52.8,10.6-62.3,19.8
	c-19.8,19-24.4,43.1-24.4,70.7c0,51.7,39.8,99.1,97.8,99.1c20.3,0,36.3-2.4,47.1-13.5c5.7-6,9.2-17.9,10-22.8c0.5-3,1.1-4.1,2.7-4.1
	c1.4,0,1.9,1.9,1.9,4.1c0,1.9-3.3,25.5-6,34.7c-1.6,5.2-2.2,5.7-7,7.9c-10.8,4.3-31.4,6.2-48.7,6.2C469,213,441.7,203,420.3,183.8z
	 M644.6,83c0-42.2,0-49.8-0.5-58.5c-0.5-9.2-2.7-13.5-11.6-15.4c-2.2-0.5-6.8-0.8-9.2-0.8c-1.1,0-2.2-0.5-2.2-1.6
	c0-1.6,1.4-2.2,4.3-2.2c12.2,0,29.2,0.8,30.6,0.8c1.9,0,55.8,0,62-0.3c5.1-0.3,9.5-0.8,11.6-1.4c1.4-0.3,2.4-1.3,3.8-1.3
	c0.8,0,1.1,1.1,1.1,2.4c0,1.9-1.4,5.1-2.2,12.7c-0.3,2.7-0.8,14.6-1.4,17.9c-0.3,1.4-0.8,3-1.9,3c-1.6,0-2.2-1.3-2.2-3.5
	c0-1.9-0.3-6.5-1.6-9.7c-1.9-4.3-4.6-7.6-19.2-9.2c-4.6-0.5-34.1-0.8-37.1-0.8c-1.1,0-1.6,0.8-1.6,2.7v74.7c0,1.9,0.3,2.7,1.6,2.7
	c3.5,0,36.8,0,43.1-0.5c6.5-0.5,10.3-1.1,12.7-3.8c1.9-2.2,3-3.5,4.1-3.5c0.8,0,1.3,0.5,1.3,2.2c0,1.6-1.3,6.2-2.2,15.2
	c-0.5,5.4-1.1,15.4-1.1,17.3c0,2.2,0,5.2-1.9,5.2c-1.4,0-1.9-1.1-1.9-2.4c0-2.7,0-5.4-1.1-8.9c-1.1-3.8-3.5-8.4-14.1-9.5
	c-7.3-0.8-34.1-1.4-38.7-1.4c-1.4,0-1.9,0.8-1.9,1.9v23.8c0,9.2-0.3,40.6,0,46.3c0.8,18.7,4.9,22.2,31.4,22.2c7,0,19,0,26-3
	c7-3,10.3-8.4,12.2-19.5c0.5-3,1.1-4.1,2.4-4.1c1.6,0,1.6,2.2,1.6,4.1c0,2.2-2.2,20.6-3.5,26.3c-1.9,7-4.1,7-14.6,7
	c-40.9,0-59-1.6-66.9-1.6c-0.5,0-5.1,0.3-10.8,0.3c-5.4,0.3-11.6,0.5-15.7,0.5c-3,0-4.3-0.5-4.3-2.2c0-0.8,0.5-1.6,2.2-1.6
	c2.4,0,5.7-0.5,8.1-1.1c5.4-1.1,6.8-7,7.9-14.9c1.4-11.4,1.4-32.8,1.4-58.8V83z M825.2,172.4c0.5,22.2,3.2,29.3,10.6,31.4
	c5.1,1.3,11.1,1.6,13.5,1.6c1.4,0,2.2,0.5,2.2,1.6c0,1.6-1.6,2.2-4.9,2.2c-15.4,0-26.3-0.8-28.7-0.8c-2.4,0-13.8,0.8-26,0.8
	c-2.7,0-4.3-0.3-4.3-2.2c0-1.1,0.8-1.6,2.2-1.6c2.2,0,7-0.3,11.1-1.6c6.8-1.9,8.1-9.8,8.1-34.4l0.3-155.2c0-10.6,0.8-13.5,3-13.5
	c2.2,0,6.8,6,9.5,8.7c4.1,4.6,44.4,48.2,86.1,92.9c26.8,28.7,56.3,61.7,65,70.7l-3-137.6c-0.3-17.6-2.2-23.6-10.6-25.7
	c-4.9-1.1-11.1-1.3-13.3-1.3c-1.9,0-2.2-0.8-2.2-1.9c0-1.6,2.2-1.9,5.4-1.9c12.2,0,25.2,0.8,28.2,0.8c3,0,11.9-0.8,23-0.8
	c3,0,4.9,0.3,4.9,1.9c0,1.1-1.1,1.9-3,1.9c-1.4,0-3.2,0-6.5,0.8c-8.9,1.9-10,7.9-10,24.1l-0.5,158.7c0,17.9-0.5,19.2-2.4,19.2
	c-2.2,0-5.4-3-19.8-17.3c-3-2.7-42-42.5-70.7-73.4c-31.4-33.9-62-68-70.7-77.7L825.2,172.4z M1140.2,130.7c0,26,0,47.4,1.3,58.8
	c0.8,7.9,2.4,13.8,10.6,14.9c3.8,0.5,9.8,1.1,12.2,1.1c1.6,0,2.2,0.8,2.2,1.6c0,1.4-1.3,2.2-4.3,2.2c-14.9,0-32-0.8-33.3-0.8
	c-1.3,0-18.4,0.8-26.5,0.8c-3,0-4.3-0.5-4.3-2.2c0-0.8,0.5-1.6,2.2-1.6c2.4,0,5.7-0.5,8.1-1.1c5.4-1.1,6.8-7,7.9-14.9
	c1.4-11.4,1.4-32.8,1.4-58.8V16.1l-40.1,0.5c-16.8,0.3-23.3,2.2-27.6,8.7c-3,4.6-3.8,6.5-4.6,8.4c-0.8,2.2-1.6,2.7-2.7,2.7
	c-0.8,0-1.4-0.8-1.4-2.4c0-2.7,5.4-26,6-28.2c0.5-1.6,1.6-5.1,2.7-5.1c1.9,0,4.6,2.7,11.9,3.3c7.9,0.8,18.1,1.4,21.4,1.4h101.6
	c8.7,0,14.9-0.8,19.2-1.4c4.1-0.8,6.5-1.4,7.6-1.4c1.4,0,1.4,1.6,1.4,3.2c0,8.1-0.8,26.8-0.8,29.8c0,2.4-0.8,3.5-1.9,3.5
	c-1.4,0-1.9-0.8-2.2-4.6l-0.3-3c-1.1-8.1-7.3-14.4-33.3-14.9l-34.1-0.5V130.7z M295.2,358.3v-56h30.2c7.3,0,12.2,2,15.7,5.7
	c2.8,3.1,4.3,6.9,4.3,10.8c0,4.6-1.9,8.7-5,11.6c-3.3,3.3-8.1,5.1-15,5.1h-22.8v22.8H295.2z M302.6,309v20h22.8
	c3.2,0,6.7-0.4,9.6-3.2c1.9-1.8,3-4.3,3-6.9c0-2.5-0.9-4.6-2.7-6.5c-2.7-2.8-6.3-3.4-9.9-3.4H302.6z M396.9,332.2h-22.6v19.5h39.5
	v6.6h-47v-56h45v6.6h-37.5v16.6h22.6V332.2z M431.9,358.3l26-56h7l26,56h-8.1l-7.6-16.8h-27.9l-7.5,16.8H431.9z M449.8,335.5h22.6
	l-11.1-24.4h-0.5L449.8,335.5z M562.3,348.6c-6.1,6-15.3,11.1-26.8,11.1c-18.1,0-30.8-13.2-30.8-29.5c0-16.1,12.7-29.4,30.4-29.4
	c10,0,19.5,3.9,25.6,9.6l-5.1,5c-5.1-4.9-13-8-20.4-8c-13.4,0-22.8,10.4-22.8,22.9c0,12.6,9.5,22.8,23,22.8c8.9,0,16.6-4.1,21.8-9.4
	L562.3,348.6z M584.1,358.3v-56h7.5v22.3h34.4v-22.3h7.4v56h-7.4v-27.1h-34.4v27.1H584.1z M654.3,302.4h50.9v6.6h-21.7v49.4h-7.5
	V309h-21.8V302.4z M726.2,358.3v-56H757c7.2,0,12.2,2,15.7,5.7c2.7,2.9,4.3,6.7,4.3,11c0,7.5-5.1,13.5-13,15.6l13.8,23.7h-8.5
	l-12.9-22.8h-22.8v22.8H726.2z M733.6,309v20h25.3c6.2,0,10.7-4.5,10.7-10c0-2.5-1-4.8-2.7-6.5c-2.7-2.7-6.1-3.4-9.9-3.4H733.6z
	 M832.1,332.2h-22.6v19.5H849v6.6h-47v-56h45v6.6h-37.5v16.6h22.6V332.2z M900.7,332.2h-22.6v19.5h39.5v6.6h-47v-56h45v6.6h-37.5
	v16.6h22.6V332.2z"/>
</svg>
